<?xml version="1.0" encoding="iso-8859-1"?>
<!-- Generator: Adobe Illustrator 19.0.0, SVG Export Plug-In . SVG Version: 6.00 Build 0)  -->
<svg xmlns="http://www.w3.org/2000/svg" xmlns:xlink="http://www.w3.org/1999/xlink" version="1.1" id="Capa_1" x="0px" y="0px" viewBox="0 0 512 512" style="enable-background:new 0 0 512 512;" xml:space="preserve" width="512px" height="512px">
<g>
	<g>
		<g>
			<path d="M504.635,305.677l-42.469-13.846c4.663-18.621,7.167-37.777,7.167-57.164C469.333,105.271,364.063,0,234.667,0     S0,105.271,0,234.667s105.271,234.667,234.667,234.667c33.543,0,66.764-7.629,97.12-21.438     c11.952,24.699,35.277,42.409,79.714,63.104c1.427,0.667,2.958,1,4.5,1c1.542,0,3.073-0.333,4.5-1     c79.49-37.021,91.5-64.448,91.5-139.521v-55.656C512,311.208,509.031,307.115,504.635,305.677z M234.667,21.333     c28.237,0,57.832,40.271,73.672,106.667H160.995C176.835,61.604,206.43,21.333,234.667,21.333z M312.754,149.333     c4.581,25.535,7.246,54.159,7.246,85.333c0,31.174-2.665,59.798-7.246,85.333H156.581c-4.581-25.535-7.247-54.159-7.247-85.333     c0-31.174,2.667-59.798,7.247-85.333H312.754z M183.56,27.779C164.453,50.255,149.092,85.259,139.382,128H50.197     C78.872,78.603,126.725,41.831,183.56,27.779z M21.333,234.667c0-30.344,6.465-59.174,17.935-85.333h95.868     c-4.553,26.365-7.137,55.035-7.137,85.333c0,30.298,2.583,58.969,7.137,85.333H39.268     C27.798,293.841,21.333,265.01,21.333,234.667z M50.197,341.333h89.185c9.711,42.741,25.072,77.745,44.178,100.221     C126.725,427.503,78.872,390.73,50.197,341.333z M234.667,448c-28.237,0-57.832-40.271-73.672-106.667h147.344     C292.499,407.729,262.904,448,234.667,448z M285.37,441.977c13.711-15.965,25.473-38.427,34.688-65.471     c0.163,20.199,1.361,36.909,4.746,51.212C312.02,433.704,298.919,438.677,285.37,441.977z M329.952,128     c-9.711-42.741-25.072-77.745-44.178-100.221C342.608,41.831,390.461,78.603,419.137,128H329.952z M334.197,149.333h95.869     c11.47,26.159,17.935,54.99,17.935,85.333c0,17.129-2.523,33.958-6.52,50.419l-22.178-7.232c-2.146-0.688-4.458-0.688-6.604,0     l-75.784,24.71c2.846-21.431,4.419-44.176,4.419-67.897C341.333,204.368,338.75,175.698,334.197,149.333z M490.667,371.479     c0,65.021-7.448,86.031-74.667,118.063c-67.219-32.031-74.667-53.042-74.667-118.063v-47.917L416,299.219l74.667,24.344V371.479z     " fill="#cbcbcb"/>
			<path d="M370.021,336.646c-4.385,1.438-7.354,5.531-7.354,10.146v47.875c0,5.896,4.771,10.667,10.667,10.667h32v48.583     c0,3.719,1.938,7.167,5.104,9.104c1.708,1.042,3.635,1.563,5.563,1.563c1.667,0,3.333-0.385,4.865-1.177     c36.344-18.635,46.76-33.302,48.458-68.219c0.135-2.917-0.917-5.76-2.938-7.875c-2.01-2.115-4.802-3.313-7.719-3.313h-32v-51.125     c0-3.417-1.635-6.625-4.406-8.635c-2.76-1.99-6.323-2.531-9.573-1.51L370.021,336.646z M405.333,384H384v-29.469l21.333-6.958     V384z M426.667,405.333h20.396c-1.865,13.354-6.594,21.292-20.396,30.292V405.333z" fill="#cbcbcb"/>
		</g>
	</g>
</g>
</svg>
